<?xml version="1.0" encoding="UTF-8"?>
<!-- Removed DOCTYPE declaration as it is not required for SVG -->
<svg xmlns="http://www.w3.org/2000/svg" version="1.1" width="400px" height="400px"
    style="shape-rendering:geometricPrecision; text-rendering:geometricPrecision; image-rendering:optimizeQuality; fill-rule:evenodd; clip-rule:evenodd"
    xmlns:xlink="http://www.w3.org/1999/xlink">
    <g>
        <path style="opacity:0.833" fill="#000000"
            d="M 174.5,46.5 C 186.181,46.7526 197.514,48.9192 208.5,53C 216.962,59.1278 224.462,66.2945 231,74.5C 233.25,85.2945 236.084,95.9612 239.5,106.5C 237.377,111.805 234.21,116.472 230,120.5C 226.748,126.088 222.415,130.755 217,134.5C 216.598,135.872 216.098,137.205 215.5,138.5C 219.848,145.869 224.181,153.202 228.5,160.5C 232.115,156.199 235.282,151.532 238,146.5C 239.128,144.655 239.628,142.655 239.5,140.5C 240.822,140.67 241.989,140.337 243,139.5C 247.975,130.446 252.975,122.112 258,114.5C 258.667,113.833 259.333,113.167 260,112.5C 260.827,104.39 262.16,96.3899 264,88.5C 272.128,80.4496 280.795,73.1163 290,66.5C 291.766,67.2335 293.599,67.5668 295.5,67.5C 295.33,66.1779 295.663,65.0113 296.5,64C 298.938,63.3179 301.105,63.8179 303,65.5C 304.559,64.9706 306.059,64.304 307.5,63.5C 311.079,69.3559 312.246,76.0226 311,83.5C 306.869,94.4262 302.202,105.093 297,115.5C 293.906,118.986 290.24,120.653 286,120.5C 273.808,137.841 262.308,155.841 251.5,174.5C 255.411,180.087 260.744,183.087 267.5,183.5C 278.134,207.305 282.301,232.305 280,258.5C 279.25,259.126 278.416,259.626 277.5,260C 283.19,262.782 283.857,266.449 279.5,271C 275.148,271.752 270.815,272.585 266.5,273.5C 268.718,274.924 270.218,276.924 271,279.5C 271.028,285.929 273.194,291.429 277.5,296C 276.941,296.725 276.608,297.558 276.5,298.5C 277.566,302.197 278.732,305.864 280,309.5C 281.775,311.394 283.775,313.061 286,314.5C 286.667,316.167 286.667,317.833 286,319.5C 284.456,321.369 282.956,323.203 281.5,325C 285.05,332.148 282.717,335.815 274.5,336C 255.503,336.5 236.503,336.667 217.5,336.5C 217.665,339.518 217.498,342.518 217,345.5C 215.59,346.787 214.09,347.954 212.5,349C 213.696,349.654 213.696,350.154 212.5,350.5C 211.205,349.902 209.872,349.402 208.5,349C 190.802,348.793 173.136,348.293 155.5,347.5C 154.167,343.833 154.167,340.167 155.5,336.5C 134.811,336.805 114.144,336.305 93.5,335C 91.1402,333.635 89.4735,331.635 88.5,329C 91.8887,326.561 95.5553,324.561 99.5,323C 97.9716,321.352 97.3049,319.352 97.5,317C 100.554,306.722 101.221,296.222 99.5,285.5C 100.025,284.808 100.692,284.308 101.5,284C 100.234,283.691 99.0674,283.191 98,282.5C 97.6964,280.559 96.8631,278.893 95.5,277.5C 100.894,273.301 99.8939,271.134 92.5,271C 89.7414,266.941 90.0747,263.108 93.5,259.5C 91.5984,257.937 90.5984,255.937 90.5,253.5C 93.4959,242.288 96.6625,231.288 100,220.5C 100.916,205.487 104.916,191.487 112,178.5C 115.768,175.036 119.934,172.203 124.5,170C 132.141,169.004 139.474,167.004 146.5,164C 149.026,160.974 151.36,157.807 153.5,154.5C 149.761,147.212 147.094,139.545 145.5,131.5C 145.795,129.029 146.795,126.863 148.5,125C 146.845,122.753 146.512,120.42 147.5,118C 143.842,114.122 139.675,110.956 135,108.5C 132.716,103.133 133.55,98.3 137.5,94C 137.043,93.586 136.709,93.086 136.5,92.5C 139.751,89.0047 142.251,85.0047 144,80.5C 144.333,80.8333 144.667,81.1667 145,81.5C 147.142,73.427 150.642,65.927 155.5,59C 161.51,54.3293 167.843,50.1626 174.5,46.5 Z M 208.5,146.5 C 205.277,159.78 199.277,171.614 190.5,182C 187.978,183.341 185.311,184.174 182.5,184.5C 182.351,185.552 182.517,186.552 183,187.5C 184.713,188.878 186.047,190.545 187,192.5C 187.893,193.711 188.726,193.711 189.5,192.5C 200.042,177.749 208.209,161.749 214,144.5C 219.932,153.866 223.765,164.033 225.5,175C 224.791,185.218 223.624,195.385 222,205.5C 221.524,209.576 220.358,213.41 218.5,217C 214.286,216.742 210.12,215.908 206,214.5C 205.167,214.833 204.333,215.167 203.5,215.5C 208.305,218.156 213.305,220.323 218.5,222C 207.288,233.714 195.621,244.88 183.5,255.5C 179.045,246.86 176.045,237.693 174.5,228C 178.398,217.475 182.398,206.975 186.5,196.5C 184.324,193.98 181.658,192.313 178.5,191.5C 175.525,203.707 173.192,216.041 171.5,228.5C 172.553,237.38 174.553,246.046 177.5,254.5C 171.371,255.967 165.371,255.633 159.5,253.5C 153.142,241.619 147.475,229.452 142.5,217C 145.711,215.847 149.044,215.18 152.5,215C 152.957,214.586 153.291,214.086 153.5,213.5C 144.94,212.593 141.273,207.76 142.5,199C 142.467,183.244 147.801,169.744 158.5,158.5C 162.801,160.969 166.967,163.636 171,166.5C 171.874,163.039 171.04,160.039 168.5,157.5C 159.711,155.326 154.544,149.66 153,140.5C 152.203,132.13 151.203,123.797 150,115.5C 148.112,109.935 144.279,107.102 138.5,107C 137.941,106.275 137.608,105.442 137.5,104.5C 144.238,92.0263 150.738,79.3596 157,66.5C 163.274,59.3848 170.774,54.0515 179.5,50.5C 189.569,52.0125 199.235,54.8458 208.5,59C 214.969,64.4677 221.136,70.301 227,76.5C 228.995,86.3099 231.495,95.9766 234.5,105.5C 234.101,107.197 233.601,108.863 233,110.5C 228.642,114.196 224.975,118.53 222,123.5C 218.081,127.758 213.915,131.591 209.5,135C 210.61,137.737 210.777,140.571 210,143.5C 209.667,142.833 209.333,142.167 209,141.5C 199.147,147.091 189.814,153.424 181,160.5C 180.192,162.579 180.359,164.579 181.5,166.5C 191.645,161.351 200.645,154.684 208.5,146.5 Z M 184.5,68.5 C 189.481,69.0892 194.481,69.5892 199.5,70C 200.931,70.4652 202.097,71.2986 203,72.5C 205.114,77.544 204.281,82.044 200.5,86C 198.975,87.0086 197.308,87.5086 195.5,87.5C 194.341,90.6619 193.008,93.8286 191.5,97C 194.277,100.042 196.944,103.208 199.5,106.5C 200.652,109.106 200.818,111.773 200,114.5C 197,118.833 194,123.167 191,127.5C 189.098,134.291 186.931,140.958 184.5,147.5C 178.846,148.453 173.18,148.286 167.5,147C 166.069,146.535 164.903,145.701 164,144.5C 158.384,124.141 157.05,103.475 160,82.5C 162.104,80.2616 164.438,79.2616 167,79.5C 171.594,73.632 177.427,69.9654 184.5,68.5 Z M 299.5,69.5 C 304.627,68.9581 307.294,71.2915 307.5,76.5C 303.56,89.4842 298.727,102.151 293,114.5C 290.26,115.282 287.426,115.782 284.5,116C 283.069,116.465 281.903,117.299 281,118.5C 269.5,136 258,153.5 246.5,171C 245.833,171.667 245.167,171.667 244.5,171C 241.832,166.826 238.165,163.826 233.5,162C 244.125,145.919 254.625,129.752 265,113.5C 266.599,110.009 266.766,106.509 265.5,103C 266.361,100.132 268.028,97.7985 270.5,96C 265.113,94.7907 264.447,92.624 268.5,89.5C 270.211,90.5813 271.711,91.9146 273,93.5C 274.775,92.7297 276.275,91.563 277.5,90C 276.437,88.8118 275.103,88.3118 273.5,88.5C 273.5,86.8333 273.5,85.1667 273.5,83.5C 274.833,83.5 276.167,83.5 277.5,83.5C 278.608,88.4648 280.774,88.7982 284,84.5C 284.483,83.552 284.649,82.552 284.5,81.5C 283.167,81.5 281.833,81.5 280.5,81.5C 282.106,75.1882 284.106,75.0215 286.5,81C 291.953,79.8057 292.62,77.3057 288.5,73.5C 290.59,70.9912 292.423,71.3246 294,74.5C 295.73,72.5981 297.563,70.9314 299.5,69.5 Z M 229.5,165.5 C 239.236,171.729 248.569,178.562 257.5,186C 246.457,193.042 238.29,202.542 233,214.5C 232.028,218.097 231.528,221.764 231.5,225.5C 232.583,235.163 233.583,244.829 234.5,254.5C 220.695,255.449 206.695,255.615 192.5,255C 202.801,244.179 212.967,233.345 223,222.5C 226.96,203.693 229.127,184.693 229.5,165.5 Z M 142.5,169.5 C 143.239,169.369 143.906,169.536 144.5,170C 136.476,192.943 137.31,215.443 147,237.5C 149.055,243.277 151.888,248.611 155.5,253.5C 146.925,255.199 138.258,255.866 129.5,255.5C 127.167,234.173 124.834,212.84 122.5,191.5C 122.838,186.453 123.505,181.453 124.5,176.5C 130.599,174.139 136.599,171.806 142.5,169.5 Z M 119.5,176.5 C 120.497,176.47 121.164,176.97 121.5,178C 119.652,185.741 119.152,193.574 120,201.5C 122.461,219.352 124.628,237.185 126.5,255C 115.757,255.903 105.091,255.403 94.5,253.5C 100.426,235.465 105.259,217.132 109,198.5C 111.182,190.471 114.682,183.138 119.5,176.5 Z M 260.5,188.5 C 262.981,188.323 264.814,189.323 266,191.5C 273.122,211.899 276.455,232.899 276,254.5C 264.302,255.629 252.135,255.629 239.5,254.5C 237.509,244.067 235.843,233.567 234.5,223C 235.258,216.384 237.758,210.551 242,205.5C 247.737,199.259 253.903,193.592 260.5,188.5 Z M 127.5,263.5 C 172.501,263.333 217.501,263.5 262.5,264C 268.01,264.05 273.343,264.717 278.5,266C 225.87,267.645 173.204,267.978 120.5,267C 112.147,266.832 103.813,266.332 95.5,265.5C 106.326,264.833 116.992,264.167 127.5,263.5 Z M 120.5,272.5 C 125.875,272.172 131.208,272.505 136.5,273.5C 135.074,278.022 135.574,282.355 138,286.5C 138.667,294.167 138.667,301.833 138,309.5C 137.667,310.167 137.333,310.833 137,311.5C 136.588,306.589 134.088,303.256 129.5,301.5C 125.692,303.474 122.692,306.308 120.5,310C 119.552,310.483 118.552,310.649 117.5,310.5C 116.431,302.535 116.264,294.535 117,286.5C 117.878,283.785 119.378,281.451 121.5,279.5C 119.631,277.278 119.298,274.945 120.5,272.5 Z M 156.5,272.5 C 165.749,271.827 166.749,274.327 159.5,280C 160.766,280.309 161.933,280.809 163,281.5C 164.461,284.679 165.295,288.012 165.5,291.5C 161.894,291.789 158.394,291.456 155,290.5C 154.333,288.833 154.333,287.167 155,285.5C 156.696,283.44 157.863,281.107 158.5,278.5C 158.167,277.833 157.833,277.167 157.5,276.5C 150.223,280.736 147.557,287.069 149.5,295.5C 156.833,295.5 164.167,295.5 171.5,295.5C 171.622,290.768 171.122,286.102 170,281.5C 168.155,280.95 166.655,279.95 165.5,278.5C 171.129,277.473 176.795,276.807 182.5,276.5C 181.756,278.986 180.256,280.986 178,282.5C 177.4,293.499 176.9,304.499 176.5,315.5C 178.977,315.051 180.977,315.717 182.5,317.5C 176.833,320.167 171.167,320.167 165.5,317.5C 167.323,316.509 168.823,315.176 170,313.5C 170.499,308.845 170.666,304.179 170.5,299.5C 163.48,299.502 156.48,299.835 149.5,300.5C 149.334,304.846 149.501,309.179 150,313.5C 151.177,315.176 152.677,316.509 154.5,317.5C 153.975,318.192 153.308,318.692 152.5,319C 147.914,319.197 143.414,319.697 139,320.5C 138.308,319.975 137.808,319.308 137.5,318.5C 139.029,316.812 140.863,315.479 143,314.5C 143.5,303.172 143.667,291.838 143.5,280.5C 141.712,280.785 140.045,280.452 138.5,279.5C 138.709,278.914 139.043,278.414 139.5,278C 143.716,276.796 148.049,276.13 152.5,276C 154.91,275.943 156.244,274.776 156.5,272.5 Z M 184.5,272.5 C 187.397,272.125 190.063,272.625 192.5,274C 189.887,277.204 189.887,280.37 192.5,283.5C 194.428,295.456 193.428,307.123 189.5,318.5C 189.148,320.924 190.148,322.424 192.5,323C 188.928,324.405 185.261,324.738 181.5,324C 184.918,323.511 186.251,321.511 185.5,318C 183.161,312.316 181.828,306.316 181.5,300C 181.427,292.353 183.094,285.186 186.5,278.5C 186.124,276.617 185.124,275.117 183.5,274C 184.056,273.617 184.389,273.117 184.5,272.5 Z M 224.5,272.5 C 235.578,272.069 246.578,272.569 257.5,274C 254.179,276.452 251.679,279.618 250,283.5C 246.363,293.255 242.696,302.588 239,311.5C 238.167,310.667 237.333,309.833 236.5,309C 244.006,291.699 239.006,280.032 221.5,274C 222.737,273.768 223.737,273.268 224.5,272.5 Z M 101.5,276.5 C 106.179,276.334 110.845,276.501 115.5,277C 116.308,277.308 116.975,277.808 117.5,278.5C 114.56,279.54 112.726,281.54 112,284.5C 111.693,289.357 111.193,294.19 110.5,299C 111.378,304.463 111.712,309.963 111.5,315.5C 115.514,315.666 119.514,315.499 123.5,315C 125.781,311.955 127.781,308.788 129.5,305.5C 130.569,310.156 130.569,314.822 129.5,319.5C 119.667,319.972 110,319.472 100.5,318C 103.268,316.238 104.768,313.738 105,310.5C 105.729,300.473 105.563,290.473 104.5,280.5C 99.8937,280.949 98.8937,279.616 101.5,276.5 Z M 193.5,276.5 C 203.547,276.836 213.547,277.669 223.5,279C 233.116,284.411 236.616,292.578 234,303.5C 231.275,312.227 225.442,317.394 216.5,319C 208.335,319.964 200.335,319.63 192.5,318C 194.609,316.859 196.442,315.359 198,313.5C 198.667,303.167 198.667,292.833 198,282.5C 197.009,281.061 195.676,280.061 194,279.5C 193.517,278.552 193.351,277.552 193.5,276.5 Z M 260.5,276.5 C 261.978,276.238 263.311,276.571 264.5,277.5C 268.173,289.688 272.34,301.688 277,313.5C 278.745,314.956 280.578,316.289 282.5,317.5C 276.265,319.018 269.932,320.018 263.5,320.5C 262.524,318.877 263.024,317.543 265,316.5C 265.741,317.641 266.575,317.641 267.5,316.5C 268.657,313.216 268.824,309.882 268,306.5C 265.617,305.234 262.95,304.568 260,304.5C 257.5,304.667 255,304.833 252.5,305C 250.695,307.567 249.362,310.401 248.5,313.5C 250.664,315.684 253.331,317.017 256.5,317.5C 256.291,318.086 255.957,318.586 255.5,319C 250.5,319.667 245.5,319.667 240.5,319C 239.689,316.709 240.523,314.875 243,313.5C 247.252,305.078 250.918,296.412 254,287.5C 255.674,283.476 257.841,279.809 260.5,276.5 Z M 212.5,285.5 C 219.35,287.024 223.017,291.358 223.5,298.5C 223.118,305.026 219.951,309.36 214,311.5C 211.812,311.646 210.479,310.646 210,308.5C 209.333,302.5 209.333,296.5 210,290.5C 210.366,288.548 211.199,286.882 212.5,285.5 Z M 158.5,304.5 C 162.271,303.774 164.937,305.107 166.5,308.5C 163.884,311.624 161.884,315.124 160.5,319C 160.988,320.584 161.988,321.751 163.5,322.5C 160.662,324.102 157.662,324.602 154.5,324C 159.924,318.572 159.591,313.406 153.5,308.5C 154.707,306.459 156.374,305.126 158.5,304.5 Z M 256.5,309.5 C 258.527,309.338 260.527,309.505 262.5,310C 263.495,312.055 262.662,313.221 260,313.5C 258.274,313.054 256.774,312.221 255.5,311C 256.056,310.617 256.389,310.117 256.5,309.5 Z M 234.5,312.5 C 236.646,312.696 236.812,313.696 235,315.5C 233.181,320.683 235.014,323.516 240.5,324C 234.804,324.83 229.137,324.663 223.5,323.5C 225.359,321.808 227.359,320.308 229.5,319C 230.999,316.672 232.666,314.505 234.5,312.5 Z M 132.5,321.5 C 138.144,324.011 137.811,324.845 131.5,324C 132.252,323.329 132.586,322.496 132.5,321.5 Z M 142.5,327.5 C 183.168,327.333 223.835,327.5 264.5,328C 268.833,328.333 273.167,328.667 277.5,329C 277.957,329.414 278.291,329.914 278.5,330.5C 276.234,331.314 273.9,331.814 271.5,332C 217.833,332.667 164.167,332.667 110.5,332C 104.804,331.83 99.1376,331.33 93.5,330.5C 93.7093,329.914 94.0426,329.414 94.5,329C 110.672,328.831 126.672,328.331 142.5,327.5 Z M 158.5,339.5 C 175.833,339.949 193.166,340.449 210.5,341C 211.938,341.219 213.271,341.719 214.5,342.5C 213.975,343.192 213.308,343.692 212.5,344C 194.503,344.5 176.503,344.667 158.5,344.5C 158.5,342.833 158.5,341.167 158.5,339.5 Z" />
    </g>
    <g>
        <path style="opacity:0.81" fill="#000000"
            d="M 178.5,64.5 C 187.303,64.0913 195.97,64.9246 204.5,67C 206.333,67.5 207.5,68.6667 208,70.5C 209.618,75.2134 209.618,79.8801 208,84.5C 203.886,88.1292 199.719,91.6292 195.5,95C 199.369,98.5338 202.869,102.367 206,106.5C 206.546,109.899 206.213,113.232 205,116.5C 202.05,121.118 198.716,125.452 195,129.5C 193.987,138.224 190.487,145.724 184.5,152C 177.183,153.892 169.849,153.892 162.5,152C 160.513,150.681 159.346,148.848 159,146.5C 152.903,123.722 151.903,100.722 156,77.5C 163.529,76.1383 169.695,72.305 174.5,66C 176.058,65.79 177.391,65.29 178.5,64.5 Z M 184.5,68.5 C 177.427,69.9654 171.594,73.632 167,79.5C 164.438,79.2616 162.104,80.2616 160,82.5C 157.05,103.475 158.384,124.141 164,144.5C 164.903,145.701 166.069,146.535 167.5,147C 173.18,148.286 178.846,148.453 184.5,147.5C 186.931,140.958 189.098,134.291 191,127.5C 194,123.167 197,118.833 200,114.5C 200.818,111.773 200.652,109.106 199.5,106.5C 196.944,103.208 194.277,100.042 191.5,97C 193.008,93.8286 194.341,90.6619 195.5,87.5C 197.308,87.5086 198.975,87.0086 200.5,86C 204.281,82.044 205.114,77.544 203,72.5C 202.097,71.2986 200.931,70.4652 199.5,70C 194.481,69.5892 189.481,69.0892 184.5,68.5 Z" />
    </g>
    <g>
        <path style="opacity:0.834" fill="#000000"
            d="M 173.5,186.5 C 174.5,186.5 175.5,186.5 176.5,186.5C 175.667,197.166 173.501,207.499 170,217.5C 168.779,209.194 168.446,200.86 169,192.5C 170.332,190.34 171.832,188.34 173.5,186.5 Z" />
    </g>
    <g>
        <path style="opacity:0.825" fill="#000000"
            d="M 204.5,280.5 C 224.2,280.046 231.367,289.379 226,308.5C 224.437,311.728 221.937,313.895 218.5,315C 214.179,315.499 209.846,315.666 205.5,315.5C 204.587,303.864 204.254,292.197 204.5,280.5 Z M 212.5,285.5 C 211.199,286.882 210.366,288.548 210,290.5C 209.333,296.5 209.333,302.5 210,308.5C 210.479,310.646 211.812,311.646 214,311.5C 219.951,309.36 223.118,305.026 223.5,298.5C 223.017,291.358 219.35,287.024 212.5,285.5 Z" />
    </g>
    <g>
        <path style="opacity:0.812" fill="#000000"
            d="M 259.5,282.5 C 262.473,288.085 264.473,294.085 265.5,300.5C 261.846,300.942 258.179,301.276 254.5,301.5C 255.551,295.013 257.217,288.68 259.5,282.5 Z" />
    </g>
    <style>
        path { fill: #000; }
        @media (prefers-color-scheme: dark) {
        path { fill: #FFF; }
        }
    </style>
</svg>